# xmcd
#
# Track frame offsets:
# 150
# 19130
# 35765
# 58015
# 76240
# 94945
# 113277
# 130497
# 153282
# 174635
# 189550
# 198912
# 217565
# 236160
# 249105
# 270422
# 285292
# 306202
# 323215
# 338410
#
# Disc length: 4680 seconds
#
#
# Revision: 5
# Processed by: cddbd v1.5.2PL0 Copyright (c) Steve Scherf et al.
# Submitted via: FreeRIP 2.96 
#
DISCID=03124614
DTITLE=CD 398 - Romântico - Vários - Coleção Millenium - Romântico - Vários
DYEAR=2000
DGENRE=MPB
TTITLE0=Ritchie - Transas
TTITLE1=Verônica Sabino - Demais (Yes It Is)
TTITLE2=Caetano Veloso - Você é Linda
TTITLE3=Tetê Espíndola - Escrito Nas Estrelas
TTITLE4=Chico César - À Primeira Vista
TTITLE5=Tunai - Frisson
TTITLE6=Marcos Sabino - Reluz
TTITLE7=José Augusto - A Minha História
TTITLE8=Zizi Possi - Perigo
TTITLE9=Zeca Baleiro - Flor de Pele
TTITLE10=Maria Bethânia - Não Dá Mais Pra Segurar
TTITLE11=Marina Lima - Fullgás
TTITLE12=Paulo Ricardo - Dois
TTITLE13=Cazuza - Faz Parte Do Meu Show
TTITLE14=Angela Rô Rô - Simples Carinho
TTITLE15=João Bosco - Papel Maché
TTITLE16=Elba Ramalho - De Volta Pro Aconchego
TTITLE17=14 Bis - Todo Azul do Mar
TTITLE18=Gal Costa - Folhetim
TTITLE19=Elis Regina - Atras Da Porta
EXTD=########################\n# João Müller - Itajaí - SC - Brasil  #\n#         08 de junho de 2007         #\n#    Coleção Particular Especial    #\n########################
EXTT0=01/02/2000 - Varginha/MG
EXTT1=01/02/2000 - Varginha/MG
EXTT2=01/02/2000 - Varginha/MG
EXTT3=01/02/2000 - Varginha/MG
EXTT4=01/02/2000 - Varginha/MG
EXTT5=01/02/2000 - Varginha/MG
EXTT6=01/02/2000 - Varginha/MG
EXTT7=01/02/2000 - Varginha/MG
EXTT8=01/02/2000 - Varginha/MG
EXTT9=01/02/2000 - Varginha/MG
EXTT10=01/02/2000 - Varginha/MG
EXTT11=01/02/2000 - Varginha/MG
EXTT12=01/02/2000 - Varginha/MG
EXTT13=01/02/2000 - Varginha/MG
EXTT14=01/02/2000 - Varginha/MG
EXTT15=01/02/2000 - Varginha/MG
EXTT16=01/02/2000 - Varginha/MG
EXTT17=01/02/2000 - Varginha/MG
EXTT18=01/02/2000 - Varginha/MG
EXTT19=01/02/2000 - Varginha/MG
PLAYORDER=
